# xmcd
#
# Track frame offsets:
#	150
#	12169
#	24427
#	38828
#	54764
#	75785
#	98332
#	110409
#	127475
#	140981
#	161062
#	179097
#	197412
#	213760
#	234072
#	261040
#	278926
#	304138
#	314785
#	331897
#
# Disc length: 4596 seconds
#
# Revision: 0
# Processed by: cddbd v1.5.2PL0 Copyright (c) Steve Scherf et al.
# Submitted via: EZCDAudioConverter 2.1.7.1
#
DISCID=0e11f214
DTITLE=V/A - Mojo: 20 From 20
DYEAR=1900
DGENRE=MOJO
TTITLE0=Arctic Monkeys - Teddy Picker
TTITLE1=Black Keys - Set You Free
TTITLE2=Teenage Fanclub - Sparky's Dream
TTITLE3=The Raconteurs - Steady, As She Goes
TTITLE4=Midlake - Roscoe
TTITLE5=Mercury Rev - Opus 40
TTITLE6=Fleet Foxes - Sun It Rises
TTITLE7=Palace Brothers - (I Was Drunk At The) Pulpit
TTITLE8=Bill Fay - Thank You Lord
TTITLE9=My Morning Jacket - Golden
TTITLE10=Joe Strummer and The Mescaleros - Johnny Appleseed
TTITLE11=Jack White - Take Me With You When You Go
TTITLE12=John Grant - Marz
TTITLE13=Aimee Mann - Save Me
TTITLE14=Ali Farka Toure and Ry Cooder - Soukora
TTITLE15=Björk - Mouth's Cradle
TTITLE16=Animal Collective - My Girls
TTITLE17=Boards Of Canada - Roygbiv
TTITLE18=Cornershop - Candyman
TTITLE19=Eric Matthews - Fanfare
EXTD=
EXTT0=
EXTT1=
EXTT2=
EXTT3=
EXTT4=
EXTT5=
EXTT6=
EXTT7=
EXTT8=
EXTT9=
EXTT10=
EXTT11=
EXTT12=
EXTT13=
EXTT14=
EXTT15=
EXTT16=
EXTT17=
EXTT18=
EXTT19=
PLAYORDER=
